<?xml version="1.0" encoding="UTF-8" standalone="no"?>
<!DOCTYPE svg PUBLIC "-//W3C//DTD SVG 1.1//EN" "http://www.w3.org/Graphics/SVG/1.1/DTD/svg11.dtd">
<svg width="100%" height="100%" viewBox="0 0 456 456" version="1.1" xmlns="http://www.w3.org/2000/svg" xmlns:xlink="http://www.w3.org/1999/xlink" xml:space="preserve" xmlns:serif="http://www.serif.com/" style="fill-rule:evenodd;clip-rule:evenodd;stroke-miterlimit:10;">
    <g transform="matrix(6.38093,0,0,6.38093,227.546,228.122)">
        <g transform="matrix(1,0,0,1,-36,-36)">
            <g id="color">
                <path d="M42.976,39.034L48.862,48.328C48.912,48.408 48.939,48.499 48.939,48.593C48.939,48.864 48.715,49.088 48.444,49.088C48.345,49.088 48.248,49.058 48.166,49.002L39.259,42.954C39.177,42.899 39.08,42.869 38.981,42.869C38.744,42.869 38.539,43.038 38.495,43.271L36.487,53.799C36.442,54.032 36.237,54.201 36.001,54.201C35.765,54.201 35.56,54.032 35.515,53.799L33.505,43.271C33.461,43.038 33.256,42.869 33.019,42.869C32.92,42.869 32.823,42.899 32.742,42.954L23.836,49.002C23.754,49.058 23.657,49.087 23.558,49.087C23.287,49.087 23.064,48.864 23.064,48.593C23.064,48.499 23.09,48.408 23.14,48.328L29.024,39.034C29.074,38.954 29.101,38.863 29.101,38.769C29.101,38.531 28.929,38.325 28.694,38.282L18.549,36.446C18.314,36.403 18.142,36.197 18.142,35.959C18.142,35.721 18.314,35.515 18.549,35.473L28.695,33.634C28.929,33.592 29.101,33.386 29.101,33.148C29.101,33.054 29.075,32.962 29.025,32.883L23.14,23.588C23.09,23.509 23.063,23.417 23.063,23.324C23.063,23.052 23.287,22.829 23.558,22.829C23.657,22.829 23.754,22.859 23.836,22.915L32.741,28.962C32.823,29.018 32.92,29.048 33.019,29.048C33.256,29.048 33.461,28.878 33.505,28.646L35.515,18.117C35.559,17.885 35.764,17.716 36.001,17.716C36.237,17.716 36.442,17.885 36.487,18.117L38.495,28.646C38.539,28.878 38.744,29.048 38.981,29.048C39.08,29.048 39.177,29.018 39.259,28.962L48.166,22.915C48.248,22.859 48.345,22.829 48.444,22.829C48.715,22.829 48.939,23.052 48.939,23.324C48.939,23.417 48.912,23.509 48.862,23.588L42.976,32.883C42.926,32.962 42.899,33.054 42.899,33.148C42.899,33.386 43.071,33.592 43.306,33.634L53.452,35.473C53.686,35.515 53.858,35.721 53.858,35.959C53.858,36.197 53.686,36.403 53.452,36.446L43.306,38.282C43.071,38.325 42.899,38.531 42.899,38.769C42.899,38.863 42.926,38.954 42.976,39.034Z" style="fill:white;fill-rule:nonzero;stroke:white;stroke-width:2px;"/>
            </g>
        </g>
    </g>
</svg>
